<svg width="146" height="51" viewBox="0 0 146 51" fill="none" xmlns="http://www.w3.org/2000/svg">
<path d="M71.8107 14.2895C66.293 13.7601 61.6343 17.8391 61.6343 22.9146V35.9923H65.9956V32.2869L75.7095 29.2666V35.9923H80.0708V23.0702C80.0377 18.5864 76.5355 14.7565 71.8107 14.2895ZM75.7095 25.0008L65.9956 28.0522V23.0391C65.9956 20.9529 67.4494 19.0846 69.597 18.5553C72.8349 17.7769 75.7425 20.081 75.7425 22.9768V25.0008H75.7095Z" fill="#034246"/>
<path d="M113.904 14.7565H105.38V35.9923H109.741V32.1312H113.772C118.497 32.1312 122.594 28.7995 123.089 24.378C123.651 19.178 119.323 14.7565 113.904 14.7565ZM118.662 24.6582C118.1 26.6822 116.118 28.0522 113.904 28.0522H109.708V18.8667H113.937C117.043 18.8667 119.488 21.6068 118.662 24.6582Z" fill="#034246"/>
<path d="M142.286 30.1697C140.898 31.5708 138.982 32.3181 136.966 32.3181C132.935 32.3181 129.631 29.2044 129.631 25.4056C129.631 21.6068 132.935 18.4931 136.966 18.4931C138.915 18.4931 140.766 19.2093 142.153 20.517L145.259 17.5901C143.046 15.5039 140.105 14.3518 136.966 14.3518C130.49 14.3518 125.237 19.3027 125.237 25.4056C125.237 31.5086 130.49 36.4594 136.966 36.4594C140.171 36.4594 143.277 35.1828 145.491 33.0032L142.286 30.1697Z" fill="#034246"/>
<path d="M93.8156 14.2895C88.2979 13.7601 83.6062 17.8391 83.6062 22.9146V35.9923H87.9675V32.2869L97.6814 29.2666V35.9923H102.043V23.0702C102.043 18.5864 98.5404 14.7565 93.8156 14.2895ZM97.7144 25.0008L88.0006 28.0522V23.0391C88.0006 20.9529 89.4543 19.0846 91.602 18.5553C94.8399 17.7769 97.7474 20.081 97.7474 22.9768V25.0008H97.7144Z" fill="#034246"/>
<path d="M27.7507 0C12.8423 0 0.692383 11.4502 0.692383 25.5C0.692383 39.5498 12.8423 51 27.7507 51C42.659 51 54.809 39.5498 54.809 25.5C54.809 11.4502 42.659 0 27.7507 0ZM28.9328 48.9885V42.8301H30.0822H30.115C31.2643 42.861 32.348 43.2943 33.1361 44.037C33.3659 44.2536 33.6943 44.3774 33.9899 44.3774C34.2854 44.3774 34.6138 44.2536 34.8436 44.037C35.3034 43.6038 35.3034 42.861 34.8436 42.4278C33.5301 41.1899 31.8226 40.54 29.9836 40.54H28.3418C28.3089 40.54 28.2761 40.54 28.2432 40.571H25.3864C23.0549 40.571 21.1175 38.8689 20.9861 36.7027C20.9204 35.5576 21.3145 34.4745 22.1683 33.639C23.022 32.7724 24.2699 32.2773 25.5506 32.2773H30.0822C30.7389 32.2773 31.2972 31.7512 31.2972 31.1323C31.2972 30.5133 30.7389 29.9873 30.0822 29.9873H25.5506H25.4192C23.0877 29.9873 21.1503 28.2852 21.0189 26.1189C20.9533 24.9739 21.3473 23.8908 22.2011 23.0552C23.0549 22.1887 24.3027 21.6936 25.5834 21.6936H31.8554H36.9781C37.3393 21.6936 37.6677 21.5388 37.8975 21.2603L38.5215 20.5176C38.6856 20.301 38.62 20.0225 38.3573 19.8987C37.2736 19.4345 35.1392 18.3513 33.8257 18.3513C32.2495 18.3513 31.4613 19.3726 30.2792 19.4035H28.9657V18.8465C30.4762 16.7112 33.0047 15.3805 35.6974 15.3186H44.9248V34.2579H36.0915C36.6825 33.2057 36.9781 32.0297 36.8796 30.8228C36.6497 27.4496 33.6615 24.8192 30.0493 24.8192H25.4192C24.7624 24.8192 24.2042 25.3453 24.2042 25.9642C24.2042 26.5831 24.7624 27.1092 25.4192 27.1092H30.0493C32.3808 27.1092 34.3182 28.8113 34.4496 30.9775C34.5153 32.1226 34.1212 33.2057 33.2674 34.0413C32.4136 34.9078 31.1658 35.4029 29.8851 35.4029H25.4192C24.7624 35.4029 24.2042 35.929 24.2042 36.5479C24.2042 37.1669 24.7624 37.693 25.4192 37.693H29.918C30.7061 37.693 31.4613 37.5692 32.2166 37.3216C32.3151 37.2907 32.3808 37.2907 32.4793 37.2288C33.4973 36.7955 34.6138 36.5479 35.6974 36.517H47.322V12.9976H35.6646C33.1689 13.0595 30.8046 13.926 28.9657 15.4114V12.6881C30.8046 12.193 32.1509 10.6147 32.1509 8.75789C32.1509 6.49879 30.1807 4.64199 27.7835 4.64199C25.3864 4.64199 23.4161 6.49879 23.4161 8.75789C23.4161 10.7075 24.861 12.3167 26.7656 12.75V15.4114C24.8938 13.926 22.5623 13.0595 20.0338 12.9976H8.34358V36.517H18.5561C18.5561 36.6408 18.5561 36.7336 18.5561 36.8574C18.786 40.2306 21.7742 42.861 25.3864 42.861H26.6999V49.0194C13.4006 48.5243 2.76116 38.1572 2.76116 25.5309C2.76116 12.5643 13.9588 2.01153 27.7178 2.01153C41.4769 2.01153 52.6745 12.5643 52.6745 25.5309C52.7074 38.0953 42.1665 48.4005 28.9328 48.9885ZM18.983 34.196H10.7736V15.2567H19.9681C22.6937 15.3186 25.2222 16.6493 26.7327 18.7846V19.3416H25.5506C23.5803 19.3416 21.7085 20.1153 20.395 21.446C19.1144 22.7458 18.4576 24.4478 18.589 26.2427C18.7203 28.2852 19.9025 30.0491 21.5772 31.1323C21.1503 31.4108 20.7562 31.7203 20.4279 32.0607C19.7711 32.6796 19.2785 33.4223 18.983 34.196ZM27.7507 10.8313C26.5357 10.8313 25.5506 9.90291 25.5506 8.75789C25.5506 7.61286 26.5357 6.68447 27.7507 6.68447C28.9657 6.68447 29.9508 7.61286 29.9508 8.75789C29.9508 9.90291 28.9657 10.8313 27.7507 10.8313Z" fill="#2E8473"/>
</svg>
