<svg width="15" height="16" viewBox="0 0 15 16" fill="none" xmlns="http://www.w3.org/2000/svg">
<path d="M5.00586 0.5625C5.16211 0.21875 5.50586 0 5.88086 0H9.66211C10.0371 0 10.3809 0.21875 10.5371 0.5625L10.7871 1H13.7871C14.3184 1 14.7871 1.46875 14.7871 2C14.7871 2.5625 14.3184 3 13.7871 3H1.78711C1.22461 3 0.787109 2.5625 0.787109 2C0.787109 1.46875 1.22461 1 1.78711 1H4.78711L5.00586 0.5625ZM1.75586 4H13.7871V14C13.7871 15.125 12.8809 16 11.7871 16H3.75586C2.66211 16 1.75586 15.125 1.75586 14V4ZM4.25586 6.5V13.5C4.25586 13.7812 4.50586 14 4.75586 14C5.03711 14 5.25586 13.7812 5.25586 13.5V6.5C5.25586 6.25 5.03711 6 4.75586 6C4.50586 6 4.25586 6.25 4.25586 6.5ZM7.25586 6.5V13.5C7.25586 13.7812 7.50586 14 7.75586 14C8.03711 14 8.28711 13.7812 8.28711 13.5V6.5C8.28711 6.25 8.03711 6 7.75586 6C7.50586 6 7.25586 6.25 7.25586 6.5ZM10.2871 6.5V13.5C10.2871 13.7812 10.5059 14 10.7871 14C11.0371 14 11.2871 13.7812 11.2871 13.5V6.5C11.2871 6.25 11.0371 6 10.7871 6C10.5059 6 10.2871 6.25 10.2871 6.5Z" fill="#B6B6B6"/>
</svg>
